<svg width="1024" height="1024" viewBox="0 0 1024 1024" xmlns="http://www.w3.org/2000/svg">
  <rect width="1024" height="1024" fill="#09BC8A"/>
  <!-- stack, spine-on -->
  <g fill="#ffffff">
    <rect x="228" y="348" width="440" height="104" rx="32"/>
    <rect x="184" y="460" width="528" height="104" rx="32"/>
    <rect x="206" y="572" width="484" height="104" rx="32"/>
  </g>
  <!-- spine titles -->
  <g fill="#09BC8A">
    <rect x="274" y="378" width="140" height="16" rx="8"/>
    <rect x="274" y="410" width="90" height="16" rx="8"/>
    <rect x="230" y="490" width="170" height="16" rx="8"/>
    <rect x="230" y="522" width="110" height="16" rx="8"/>
    <rect x="252" y="602" width="150" height="16" rx="8"/>
    <rect x="252" y="634" width="100" height="16" rx="8"/>
  </g>
  <!-- worm wedged into the stack, outlined so it doesn't fuse with the spine -->
  <circle cx="758" cy="512" r="74" fill="#ffffff" stroke="#09BC8A" stroke-width="16"/>
  <circle cx="738" cy="492" r="16" fill="#09BC8A"/>
  <circle cx="784" cy="492" r="16" fill="#09BC8A"/>
  <path d="M742 536 Q762 556 786 534" fill="none" stroke="#09BC8A" stroke-width="15" stroke-linecap="round"/>
</svg>
