<svg width="120" height="120" viewBox="0 0 120 120" fill="none" xmlns="http://www.w3.org/2000/svg"><g stroke-width="3.5" stroke-linecap="round" stroke-linejoin="round"><g stroke="#626A72" stroke-linecap="round" fill="none"><path d="M37.2 27.2 L41.7 28.1" stroke-width="2.4"/><path d="M41.7 28.1 L47.6 27.9" stroke-width="2.4"/><path d="M57.1 27.2 L62.7 28.2" stroke-width="2.3"/><path d="M62.7 28.2 L67.3 27.1" stroke-width="2.4"/><path d="M77.8 28.2 L82.8 28.4" stroke-width="2.9"/><path d="M82.8 28.4 L82.8 33.2" stroke-width="3.1"/><path d="M82.2 43.1 L83.1 48.7" stroke-width="3.6"/><path d="M83.1 48.7 L82.9 53.7" stroke-width="3.7"/><path d="M83 64.4 L83.1 69.2" stroke-width="4"/><path d="M83.1 69.2 L83.3 74.6" stroke-width="3.7"/><path d="M82.9 85.3 L83 89.8" stroke-width="2.8"/><path d="M83 89.8 L78.1 90.1" stroke-width="3"/><path d="M67.4 90.7 L62.8 90.5" stroke-width="3.5"/><path d="M62.8 90.5 L57.7 90.8" stroke-width="3.2"/><path d="M46.8 89.6 L42 89.7" stroke-width="2.1"/><path d="M42 89.7 L36.8 89.8" stroke-width="2.4"/><path d="M36.5 80 L37.4 74.6" stroke-width="3.4"/><path d="M37.4 74.6 L37.8 69.5" stroke-width="3.2"/><path d="M36.7 58.6 L36.6 53.9" stroke-width="2.5"/><path d="M36.6 53.9 L37 48.3" stroke-width="2.9"/><path d="M37.6 38.4 L37.8 33.1" stroke-width="3.8"/><path d="M37.8 33.1 L37.2 27.2" stroke-width="3.8"/></g><g stroke="#09BC8A" stroke-linecap="round" fill="none"><path d="M49.5 48.2 L49.5 43.6" stroke-width="8.1"/><path d="M49.5 43.6 L51 40.5" stroke-width="7.7"/><path d="M51 40.5 L53.6 37.9" stroke-width="7.3"/><path d="M53.6 37.9 L56.1 35.8" stroke-width="6.9"/><path d="M56.1 35.8 L59.4 35.5" stroke-width="6.5"/><path d="M59.4 35.5 L63.4 36.2" stroke-width="6.8"/><path d="M63.4 36.2 L66.8 37.5" stroke-width="7"/><path d="M66.8 37.5 L69.1 39.9" stroke-width="7.2"/><path d="M69.1 39.9 L70.6 43.4" stroke-width="7.4"/><path d="M70.6 43.4 L70.3 46.8" stroke-width="7.3"/><path d="M70.3 46.8 L69.6 50.8" stroke-width="7.3"/><path d="M69.6 50.8 L67.9 53.5" stroke-width="7.2"/><path d="M67.9 53.5 L64.1 55.9" stroke-width="7.2"/><path d="M64.1 55.9 L61.3 56.5" stroke-width="7.4"/><path d="M61.3 56.5 L62 59.9" stroke-width="7.7"/><path d="M62 59.9 L60.3 65.5" stroke-width="7.9"/></g><circle cx="60.2" cy="74.8" r="4.1" fill="#09BC8A" stroke="none"/></g></svg>