<svg width="120" height="120" viewBox="0 0 120 120" fill="none" xmlns="http://www.w3.org/2000/svg"><g stroke-width="3.5" stroke-linecap="round" stroke-linejoin="round"><path d="M16.2 91.8 L18 86.8 L18.4 82.6 L17.4 78.1 L18.1 74.8 L18.6 69.4 L18 65.4 L17.6 60.3 L17.7 57.1 L18.6 51.4 L16.8 46.9 L17.5 43.8 L15.4 38.1 L16 34.2 L16.7 30.4 L18.1 24.7 L16.7 20.7 L17.2 16.8 L17.3 11.6 L21.8 13.2 L26.2 11.1 L30.6 11.7 L35.2 11.9 L38.8 11.1 L43.5 12.1 L47.1 13.5 L52 10.7 L55.8 12.5 L60.9 11.4 L65.5 13 L69.5 12.8 L73.2 12.7 L77.6 11.9 L78.2 16 L77.8 21.3 L72.7 21 L68.2 20.7 L64.9 19.8 L59.3 21.9 L55.7 19.7 L50 20.2 L44.9 21.9 L41.4 21.7 L36.4 20.8 L31.6 19.4 L27.7 21.4 L26.8 25.7 L26.4 30.7 L27.5 35 L27 38.6 L25.4 42.5 L26.3 47.3 L25.4 52 L27.2 56.4 L25.6 60.9 L27.3 65.7 L27.9 69.9 L28.2 75 L28.4 79.1 L27.7 83.4 L28 87.7 L27.1 92.7 L22.4 92.5 Z" fill="#FFFFFF" stroke="none"/><g stroke="#626A72" stroke-linecap="round" fill="none" stroke-opacity="0.7"><path d="M16.2 91.8 L18 86.8" stroke-width="1.4"/><path d="M18 86.8 L18.4 82.6" stroke-width="1.3"/><path d="M18.4 82.6 L17.4 78.1" stroke-width="1.3"/><path d="M17.4 78.1 L18.1 74.8" stroke-width="1.3"/><path d="M18.1 74.8 L18.6 69.4" stroke-width="1.2"/><path d="M18.6 69.4 L18 65.4" stroke-width="1.4"/><path d="M17.6 60.3 L17.7 57.1" stroke-width="1.6"/><path d="M17.7 57.1 L18.6 51.4" stroke-width="1.7"/><path d="M18.6 51.4 L16.8 46.9" stroke-width="1.6"/><path d="M16.8 46.9 L17.5 43.8" stroke-width="1.5"/><path d="M17.5 43.8 L15.4 38.1" stroke-width="1.4"/><path d="M15.4 38.1 L16 34.2" stroke-width="1.3"/><path d="M16 34.2 L16.7 30.4" stroke-width="1.5"/><path d="M16.7 30.4 L18.1 24.7" stroke-width="1.7"/><path d="M18.1 24.7 L16.7 20.7" stroke-width="1.9"/><path d="M16.7 20.7 L17.2 16.8" stroke-width="2.1"/><path d="M17.2 16.8 L17.3 11.6" stroke-width="2"/><path d="M21.8 13.2 L26.2 11.1" stroke-width="2"/><path d="M26.2 11.1 L30.6 11.7" stroke-width="2"/><path d="M30.6 11.7 L35.2 11.9" stroke-width="2.2"/><path d="M35.2 11.9 L38.8 11.1" stroke-width="2.4"/><path d="M38.8 11.1 L43.5 12.1" stroke-width="2.7"/><path d="M43.5 12.1 L47.1 13.5" stroke-width="2.9"/><path d="M47.1 13.5 L52 10.7" stroke-width="2.9"/><path d="M52 10.7 L55.8 12.5" stroke-width="2.8"/><path d="M55.8 12.5 L60.9 11.4" stroke-width="2.8"/><path d="M60.9 11.4 L65.5 13" stroke-width="2.7"/><path d="M65.5 13 L69.5 12.8" stroke-width="2.3"/><path d="M69.5 12.8 L73.2 12.7" stroke-width="1.9"/><path d="M73.2 12.7 L77.6 11.9" stroke-width="1.5"/><path d="M77.6 11.9 L78.2 16" stroke-width="1"/><path d="M78.2 16 L77.8 21.3" stroke-width="1"/><path d="M77.8 21.3 L72.7 21" stroke-width="1.1"/><path d="M72.7 21 L68.2 20.7" stroke-width="1.1"/><path d="M68.2 20.7 L64.9 19.8" stroke-width="1.1"/><path d="M64.9 19.8 L59.3 21.9" stroke-width="1.3"/><path d="M59.3 21.9 L55.7 19.7" stroke-width="1.5"/><path d="M55.7 19.7 L50 20.2" stroke-width="1.8"/><path d="M50 20.2 L44.9 21.9" stroke-width="2"/><path d="M44.9 21.9 L41.4 21.7" stroke-width="2.2"/><path d="M41.4 21.7 L36.4 20.8" stroke-width="2.4"/><path d="M36.4 20.8 L31.6 19.4" stroke-width="2.6"/><path d="M31.6 19.4 L27.7 21.4" stroke-width="2.8"/><path d="M27.7 21.4 L26.8 25.7" stroke-width="2.7"/><path d="M26.8 25.7 L26.4 30.7" stroke-width="2.6"/><path d="M26.4 30.7 L27.5 35" stroke-width="2.4"/><path d="M27.5 35 L27 38.6" stroke-width="2.3"/><path d="M27 38.6 L25.4 42.5" stroke-width="2.4"/><path d="M25.4 42.5 L26.3 47.3" stroke-width="2.6"/><path d="M25.4 52 L27.2 56.4" stroke-width="3"/><path d="M27.2 56.4 L25.6 60.9" stroke-width="2.8"/><path d="M25.6 60.9 L27.3 65.7" stroke-width="2.7"/><path d="M27.3 65.7 L27.9 69.9" stroke-width="2.5"/><path d="M27.9 69.9 L28.2 75" stroke-width="2.3"/><path d="M28.2 75 L28.4 79.1" stroke-width="2.2"/><path d="M28.4 79.1 L27.7 83.4" stroke-width="2.1"/><path d="M27.7 83.4 L28 87.7" stroke-width="2"/><path d="M27.1 92.7 L22.4 92.5" stroke-width="1.7"/><path d="M22.4 92.5 L16.2 91.8" stroke-width="1.7"/></g><g stroke="none"><circle cx="36.2" cy="23.1" r="0.6" fill="#626A72" fill-opacity="0.4"/><circle cx="28.5" cy="23.2" r="0.5" fill="#626A72" fill-opacity="0.4"/><circle cx="19.2" cy="43.3" r="0.7" fill="#626A72" fill-opacity="0.5"/><circle cx="18.6" cy="85.1" r="0.6" fill="#626A72" fill-opacity="0.5"/><circle cx="27.4" cy="56.5" r="0.5" fill="#626A72" fill-opacity="0.4"/><circle cx="20" cy="70.7" r="0.9" fill="#626A72" fill-opacity="0.5"/><circle cx="24.3" cy="43" r="0.6" fill="#626A72" fill-opacity="0.5"/><circle cx="19.8" cy="71.1" r="0.8" fill="#626A72" fill-opacity="0.6"/><circle cx="22.6" cy="91.8" r="0.4" fill="#626A72" fill-opacity="0.2"/><circle cx="17.9" cy="77" r="0.6" fill="#626A72" fill-opacity="0.5"/><circle cx="29.1" cy="52.2" r="0.5" fill="#626A72" fill-opacity="0.5"/><circle cx="15.3" cy="29.7" r="0.5" fill="#626A72" fill-opacity="0.5"/><circle cx="27" cy="34.8" r="0.6" fill="#626A72" fill-opacity="0.3"/><circle cx="20.3" cy="70.1" r="0.8" fill="#626A72" fill-opacity="0.3"/><circle cx="21" cy="42.8" r="0.7" fill="#626A72" fill-opacity="0.3"/><circle cx="72" cy="13.5" r="0.7" fill="#626A72" fill-opacity="0.5"/><circle cx="19.4" cy="43.2" r="0.8" fill="#626A72" fill-opacity="0.2"/><circle cx="27.5" cy="55.7" r="0.5" fill="#626A72" fill-opacity="0.5"/><circle cx="17.5" cy="24.2" r="0.4" fill="#626A72" fill-opacity="0.5"/><circle cx="32.2" cy="23.3" r="0.8" fill="#626A72" fill-opacity="0.6"/><circle cx="17.7" cy="52" r="0.9" fill="#626A72" fill-opacity="0.5"/><circle cx="17.3" cy="38.2" r="0.4" fill="#626A72" fill-opacity="0.5"/><circle cx="18.7" cy="64.2" r="0.7" fill="#626A72" fill-opacity="0.3"/><circle cx="60.4" cy="21.1" r="0.9" fill="#626A72" fill-opacity="0.2"/><circle cx="47.9" cy="22.8" r="0.6" fill="#626A72" fill-opacity="0.5"/><circle cx="18.8" cy="64.2" r="0.4" fill="#626A72" fill-opacity="0.4"/><circle cx="18.7" cy="84.9" r="0.8" fill="#626A72" fill-opacity="0.5"/><circle cx="40.6" cy="23.8" r="0.5" fill="#626A72" fill-opacity="0.6"/><circle cx="21" cy="35.5" r="0.8" fill="#626A72" fill-opacity="0.4"/><circle cx="20.7" cy="32.3" r="0.9" fill="#626A72" fill-opacity="0.5"/><circle cx="66.5" cy="12.1" r="0.8" fill="#626A72" fill-opacity="0.3"/><circle cx="71.7" cy="21.4" r="0.9" fill="#626A72" fill-opacity="0.4"/><circle cx="55.1" cy="24.8" r="0.4" fill="#626A72" fill-opacity="0.6"/><circle cx="54.9" cy="20.4" r="0.5" fill="#626A72" fill-opacity="0.3"/><circle cx="40" cy="25.6" r="0.9" fill="#626A72" fill-opacity="0.2"/><circle cx="54.5" cy="20.8" r="0.4" fill="#626A72" fill-opacity="0.4"/><circle cx="17.9" cy="83.8" r="0.5" fill="#626A72" fill-opacity="0.5"/><circle cx="41.9" cy="20.6" r="0.8" fill="#626A72" fill-opacity="0.5"/><circle cx="17.5" cy="76" r="0.4" fill="#626A72" fill-opacity="0.3"/><circle cx="72.1" cy="21.2" r="0.7" fill="#626A72" fill-opacity="0.4"/></g><path d="M36.3 30.5 L39.9 28.5 L45.4 29.5 L50.1 28.7 L54.7 30.7 L58.4 28.7 L63.3 31.2 L68.2 29.1 L72.5 30.8 L76.8 31.5 L80.3 31.1 L86.1 30 L90.3 30.2 L88.9 33.7 L91.5 38.3 L90.4 43.9 L90.4 47.7 L89.7 52.7 L88.5 56.5 L89.7 61.2 L90.2 65.5 L88.5 70.5 L89.6 73.8 L90.3 78.9 L88.7 83.4 L90.4 87.2 L89.9 92 L86 91.4 L81.7 90.8 L76.6 90.8 L72 91.5 L67.5 91.3 L63.7 93.2 L58 92.7 L54.7 91.6 L48.9 90.6 L44.8 90.8 L40.7 91.5 L35.3 92.1 L34.4 88.1 L35.2 82.9 L37.6 78.7 L36.8 73.9 L37.2 69.3 L35.9 64.6 L37.2 61.3 L35.9 57.3 L37.1 51.5 L34.5 47.7 L34.9 43 L34.6 38.7 L36.3 34.2 Z" fill="#FFFFFF" stroke="none"/><g stroke="#626A72" stroke-linecap="round" fill="none" stroke-opacity="0.7"><path d="M36.3 30.5 L39.9 28.5" stroke-width="1.7"/><path d="M39.9 28.5 L45.4 29.5" stroke-width="1.7"/><path d="M45.4 29.5 L50.1 28.7" stroke-width="1.6"/><path d="M50.1 28.7 L54.7 30.7" stroke-width="1.6"/><path d="M54.7 30.7 L58.4 28.7" stroke-width="1.6"/><path d="M58.4 28.7 L63.3 31.2" stroke-width="1.5"/><path d="M63.3 31.2 L68.2 29.1" stroke-width="1.4"/><path d="M68.2 29.1 L72.5 30.8" stroke-width="1.3"/><path d="M72.5 30.8 L76.8 31.5" stroke-width="1.1"/><path d="M76.8 31.5 L80.3 31.1" stroke-width="1.6"/><path d="M80.3 31.1 L86.1 30" stroke-width="2"/><path d="M86.1 30 L90.3 30.2" stroke-width="2.4"/><path d="M90.3 30.2 L88.9 33.7" stroke-width="2.8"/><path d="M88.9 33.7 L91.5 38.3" stroke-width="2.4"/><path d="M91.5 38.3 L90.4 43.9" stroke-width="2.1"/><path d="M90.4 43.9 L90.4 47.7" stroke-width="1.8"/><path d="M90.4 47.7 L89.7 52.7" stroke-width="1.5"/><path d="M89.7 52.7 L88.5 56.5" stroke-width="1.7"/><path d="M88.5 56.5 L89.7 61.2" stroke-width="1.9"/><path d="M89.7 61.2 L90.2 65.5" stroke-width="2.2"/><path d="M90.2 65.5 L88.5 70.5" stroke-width="2.4"/><path d="M88.5 70.5 L89.6 73.8" stroke-width="2.3"/><path d="M89.6 73.8 L90.3 78.9" stroke-width="2.1"/><path d="M90.3 78.9 L88.7 83.4" stroke-width="1.9"/><path d="M88.7 83.4 L90.4 87.2" stroke-width="1.8"/><path d="M90.4 87.2 L89.9 92" stroke-width="1.8"/><path d="M86 91.4 L81.7 90.8" stroke-width="1.9"/><path d="M81.7 90.8 L76.6 90.8" stroke-width="1.9"/><path d="M76.6 90.8 L72 91.5" stroke-width="2"/><path d="M67.5 91.3 L63.7 93.2" stroke-width="2.3"/><path d="M63.7 93.2 L58 92.7" stroke-width="2.4"/><path d="M58 92.7 L54.7 91.6" stroke-width="2.4"/><path d="M54.7 91.6 L48.9 90.6" stroke-width="2.4"/><path d="M48.9 90.6 L44.8 90.8" stroke-width="2.5"/><path d="M44.8 90.8 L40.7 91.5" stroke-width="2.5"/><path d="M40.7 91.5 L35.3 92.1" stroke-width="2.5"/><path d="M35.3 92.1 L34.4 88.1" stroke-width="2.5"/><path d="M34.4 88.1 L35.2 82.9" stroke-width="2.5"/><path d="M35.2 82.9 L37.6 78.7" stroke-width="2.5"/><path d="M37.6 78.7 L36.8 73.9" stroke-width="2.1"/><path d="M36.8 73.9 L37.2 69.3" stroke-width="1.8"/><path d="M37.2 69.3 L35.9 64.6" stroke-width="1.4"/><path d="M35.9 64.6 L37.2 61.3" stroke-width="1.1"/><path d="M37.2 61.3 L35.9 57.3" stroke-width="1.5"/><path d="M35.9 57.3 L37.1 51.5" stroke-width="1.9"/><path d="M37.1 51.5 L34.5 47.7" stroke-width="2.3"/><path d="M34.9 43 L34.6 38.7" stroke-width="2.7"/><path d="M36.3 34.2 L36.3 30.5" stroke-width="2.6"/></g><g stroke="none"><circle cx="91.1" cy="65.7" r="0.7" fill="#626A72" fill-opacity="0.4"/><circle cx="85.9" cy="72" r="0.6" fill="#626A72" fill-opacity="0.3"/><circle cx="83.4" cy="33.6" r="0.7" fill="#626A72" fill-opacity="0.5"/><circle cx="63.6" cy="88.8" r="0.6" fill="#626A72" fill-opacity="0.3"/><circle cx="86.6" cy="72.3" r="0.7" fill="#626A72" fill-opacity="0.6"/><circle cx="37.8" cy="41.2" r="0.4" fill="#626A72" fill-opacity="0.5"/><circle cx="54.5" cy="92.1" r="0.5" fill="#626A72" fill-opacity="0.4"/><circle cx="85.4" cy="64.7" r="0.7" fill="#626A72" fill-opacity="0.2"/><circle cx="54.5" cy="92.2" r="0.8" fill="#626A72" fill-opacity="0.5"/><circle cx="88.2" cy="77.6" r="0.8" fill="#626A72" fill-opacity="0.5"/><circle cx="45.2" cy="90.2" r="0.9" fill="#626A72" fill-opacity="0.4"/><circle cx="88.2" cy="32.6" r="0.4" fill="#626A72" fill-opacity="0.3"/><circle cx="47.9" cy="33.9" r="0.5" fill="#626A72" fill-opacity="0.3"/><circle cx="58.8" cy="32" r="0.4" fill="#626A72" fill-opacity="0.4"/><circle cx="51.5" cy="32.1" r="0.4" fill="#626A72" fill-opacity="0.4"/><circle cx="87.4" cy="82.2" r="0.8" fill="#626A72" fill-opacity="0.3"/><circle cx="91.5" cy="43.3" r="0.8" fill="#626A72" fill-opacity="0.4"/><circle cx="55.4" cy="33.5" r="0.8" fill="#626A72" fill-opacity="0.4"/><circle cx="40.9" cy="63.9" r="0.9" fill="#626A72" fill-opacity="0.6"/><circle cx="63.7" cy="94.1" r="0.9" fill="#626A72" fill-opacity="0.5"/><circle cx="92.5" cy="37.5" r="0.4" fill="#626A72" fill-opacity="0.3"/><circle cx="70.8" cy="87.4" r="0.9" fill="#626A72" fill-opacity="0.5"/><circle cx="86.3" cy="69.7" r="0.4" fill="#626A72" fill-opacity="0.5"/><circle cx="85.1" cy="80.3" r="0.4" fill="#626A72" fill-opacity="0.5"/><circle cx="90" cy="32.6" r="0.8" fill="#626A72" fill-opacity="0.4"/><circle cx="86" cy="72" r="0.9" fill="#626A72" fill-opacity="0.4"/><circle cx="87.5" cy="89.2" r="0.8" fill="#626A72" fill-opacity="0.3"/><circle cx="88.3" cy="77.6" r="0.9" fill="#626A72" fill-opacity="0.3"/><circle cx="35.4" cy="87.2" r="0.4" fill="#626A72" fill-opacity="0.5"/><circle cx="89.6" cy="48.1" r="0.5" fill="#626A72" fill-opacity="0.3"/><circle cx="87" cy="33.9" r="0.7" fill="#626A72" fill-opacity="0.5"/><circle cx="57.8" cy="94.1" r="0.5" fill="#626A72" fill-opacity="0.2"/><circle cx="88.3" cy="61.2" r="0.9" fill="#626A72" fill-opacity="0.5"/><circle cx="51.1" cy="85.9" r="0.9" fill="#626A72" fill-opacity="0.5"/><circle cx="88.3" cy="34.4" r="0.5" fill="#626A72" fill-opacity="0.4"/><circle cx="71.8" cy="33.1" r="0.7" fill="#626A72" fill-opacity="0.4"/><circle cx="89.6" cy="70.9" r="0.6" fill="#626A72" fill-opacity="0.6"/><circle cx="88" cy="45.4" r="0.9" fill="#626A72" fill-opacity="0.5"/><circle cx="86.3" cy="64.9" r="0.6" fill="#626A72" fill-opacity="0.3"/><circle cx="63.6" cy="89.6" r="0.5" fill="#626A72" fill-opacity="0.4"/><circle cx="36.1" cy="82.2" r="0.4" fill="#626A72" fill-opacity="0.5"/><circle cx="33.1" cy="47.1" r="0.6" fill="#626A72" fill-opacity="0.4"/><circle cx="87.9" cy="56.6" r="0.8" fill="#626A72" fill-opacity="0.4"/><circle cx="55.7" cy="87.9" r="0.4" fill="#626A72" fill-opacity="0.3"/><circle cx="87.2" cy="72.6" r="0.8" fill="#626A72" fill-opacity="0.3"/><circle cx="67" cy="87.8" r="0.4" fill="#626A72" fill-opacity="0.4"/><circle cx="39.7" cy="68.5" r="0.7" fill="#626A72" fill-opacity="0.5"/><circle cx="88" cy="77.4" r="0.7" fill="#626A72" fill-opacity="0.3"/><circle cx="88.1" cy="73.1" r="0.6" fill="#626A72" fill-opacity="0.5"/><circle cx="72.8" cy="30" r="0.5" fill="#626A72" fill-opacity="0.5"/><circle cx="88.2" cy="48.8" r="0.4" fill="#626A72" fill-opacity="0.3"/><circle cx="55.2" cy="89.6" r="0.6" fill="#626A72" fill-opacity="0.5"/><circle cx="37.2" cy="40.7" r="0.9" fill="#626A72" fill-opacity="0.5"/><circle cx="79.8" cy="32" r="0.4" fill="#626A72" fill-opacity="0.5"/><circle cx="75" cy="35.4" r="0.8" fill="#626A72" fill-opacity="0.3"/><circle cx="85.9" cy="49.9" r="0.6" fill="#626A72" fill-opacity="0.3"/></g><g stroke="#626A72" stroke-linecap="round" fill="none"><path d="M46.4 57 L58.3 56.3" stroke-width="2.7"/><path d="M58.3 56.3 L70.5 57.6" stroke-width="2.5"/></g><g stroke="#626A72" stroke-linecap="round" fill="none"><path d="M46 67.5 L53.7 67.4" stroke-width="2.8"/><path d="M53.7 67.4 L61.1 66.9" stroke-width="2.9"/></g><g transform="translate(66 71) rotate(-55)"><path d="M0.6 0.4 L7.1 -2.9 L7.3 3.9 Z" fill="#626A72" stroke="none"/><path d="M6.5 -3.5 L27.4 -3 L27.8 3.6 L6.5 2.9 Z" fill="#09BC8A" stroke="none"/><path d="M28 -3.2 L33 -3.2 L33 3.2 L28 3.2 Z" fill="#626A72" stroke="none"/></g></g></svg>