<svg width="120" height="120" viewBox="0 0 120 120" fill="none" xmlns="http://www.w3.org/2000/svg"><g stroke-width="3.5" stroke-linecap="round" stroke-linejoin="round"><path d="M16.2 91.8 L17.9 86.4 L18.2 81.5 L17.3 76.5 L17.9 72.5 L18.4 66.6 L17.8 62.1 L17.5 56.5 L17.6 52.6 L18.4 46.5 L16.8 41.4 L17.4 37.6 L15.6 31.5 L16.1 27 L16.7 22.5 L17.9 16.4 L17.1 11.9 L21.8 12.2 L27.7 11.2 L32.6 13.1 L37.8 11.2 L42.9 11.7 L48.2 11.9 L52.7 11.2 L58 12.1 L62.4 13.3 L68 10.9 L72.6 12.5 L78.4 12.1 L77.2 16.9 L78.1 20.6 L73.5 20.4 L68 20.1 L63.2 21.1 L57 21.5 L51.9 21 L46.9 20.7 L43 19.9 L37 21.7 L32.8 19.9 L26.6 21.1 L27.8 26.7 L27.6 30.7 L26.8 36.1 L25.6 41.4 L28.3 47 L26.8 51.7 L26.5 57.2 L27.4 62.2 L27 66.5 L25.6 71.1 L26.3 76.5 L25.6 81.8 L27.2 86.8 L27 91.3 L21.7 92.2 Z" fill="#FFFFFF" stroke="#626A72" stroke-width="2.2" stroke-opacity="0.8" stroke-linejoin="round"/><g stroke="none"><circle cx="23.1" cy="38.1" r="0.5" fill="#626A72" fill-opacity="0.5"/><circle cx="21" cy="66.5" r="0.6" fill="#626A72" fill-opacity="0.4"/><circle cx="22.4" cy="40.7" r="0.5" fill="#626A72" fill-opacity="0.3"/><circle cx="32.9" cy="16.8" r="0.6" fill="#626A72" fill-opacity="0.2"/><circle cx="32.9" cy="16.3" r="0.8" fill="#626A72" fill-opacity="0.4"/><circle cx="28.3" cy="79.7" r="0.5" fill="#626A72" fill-opacity="0.2"/><circle cx="66.4" cy="16.8" r="0.9" fill="#626A72" fill-opacity="0.5"/><circle cx="41.1" cy="24.3" r="0.6" fill="#626A72" fill-opacity="0.5"/><circle cx="30.8" cy="37.6" r="1" fill="#626A72" fill-opacity="0.3"/><circle cx="20.6" cy="20" r="0.5" fill="#626A72" fill-opacity="0.4"/></g><path d="M36.1 30.2 L40.5 29 L45.8 30.4 L50.6 28.8 L55.2 29.2 L60.7 28.8 L65.8 29.6 L70.8 30.1 L75 29.5 L80.2 30.6 L84.5 29.2 L89.3 30.2 L90.6 35.5 L90.9 40.9 L89.9 46 L90 50.1 L90.1 56.3 L89.1 61.4 L90.7 65.7 L91 71.4 L89.1 76.7 L89.1 81 L90.4 86.4 L89.8 91.7 L85.6 90.7 L80.3 91.1 L74.9 93.2 L70.1 90.6 L65.6 92.4 L60.7 92 L55.7 91.4 L51 92.6 L46.3 92.3 L41.3 91.6 L36 91.7 L34.7 86.3 L35.4 81.9 L36.5 76 L36.3 70.8 L35.3 66.1 L34.8 60.6 L37 55.3 L36.8 50.2 L34.9 45.2 L35.9 40 L34.8 35.2 Z" fill="#FFFFFF" stroke="#626A72" stroke-width="2.2" stroke-opacity="0.8" stroke-linejoin="round"/><g stroke="none"><circle cx="40.4" cy="86.7" r="1.1" fill="#626A72" fill-opacity="0.5"/><circle cx="78.9" cy="32.8" r="0.5" fill="#626A72" fill-opacity="0.2"/><circle cx="48.2" cy="34.8" r="0.5" fill="#626A72" fill-opacity="0.4"/><circle cx="42" cy="60.6" r="0.9" fill="#626A72" fill-opacity="0.5"/><circle cx="76.9" cy="36.4" r="0.6" fill="#626A72" fill-opacity="0.2"/><circle cx="40.1" cy="51.6" r="1" fill="#626A72" fill-opacity="0.5"/><circle cx="47.1" cy="32.9" r="0.7" fill="#626A72" fill-opacity="0.3"/><circle cx="52.5" cy="33.7" r="1.1" fill="#626A72" fill-opacity="0.4"/><circle cx="56.1" cy="32.7" r="0.8" fill="#626A72" fill-opacity="0.4"/><circle cx="87.7" cy="89.2" r="0.8" fill="#626A72" fill-opacity="0.5"/><circle cx="69.3" cy="36" r="1" fill="#626A72" fill-opacity="0.3"/><circle cx="40.1" cy="73.9" r="0.9" fill="#626A72" fill-opacity="0.2"/><circle cx="40.4" cy="69.2" r="0.5" fill="#626A72" fill-opacity="0.3"/><circle cx="39.1" cy="65.3" r="0.5" fill="#626A72" fill-opacity="0.3"/><circle cx="49.1" cy="36.4" r="0.9" fill="#626A72" fill-opacity="0.3"/><circle cx="45.2" cy="86.1" r="1.1" fill="#626A72" fill-opacity="0.3"/></g><g stroke="#626A72" stroke-linecap="round" fill="none"><path d="M45.5 57 L58.8 57.7" stroke-width="2.4"/><path d="M58.8 57.7 L69.6 57.2" stroke-width="2.4"/></g><g stroke="#626A72" stroke-linecap="round" fill="none"><path d="M45.6 67.1 L53 67.2" stroke-width="3.4"/><path d="M53 67.2 L60.5 67.4" stroke-width="3.1"/></g><g transform="translate(66 71) rotate(-55)"><path d="M-0.2 0.4 L6.5 -3 L6.6 2.9 Z" fill="#626A72" stroke="none"/><path d="M7.2 -3.8 L28.4 -3.4 L28.3 3.5 L7.2 3.2 Z" fill="#09BC8A" stroke="none"/><path d="M28 -3.2 L33 -3.2 L33 3.2 L28 3.2 Z" fill="#626A72" stroke="none"/></g></g></svg>