<svg width="160" height="160" viewBox="0 0 120 120" fill="none" xmlns="http://www.w3.org/2000/svg"><g stroke-width="3.5" stroke-linecap="round" stroke-linejoin="round"><path d="M20 80 a40 40 0 1 1 80 0 Z" fill="#FFFFFF" stroke="#626A72"/><path d="M37 48 Q29 44 25 50" stroke="#626A72" fill="none"/><path d="M83 48 Q91 44 95 50" stroke="#626A72" fill="none"/><path d="M42 57 q4 4.5 8 0" stroke="#626A72" stroke-width="3" fill="none"/><path d="M70 57 q4 4.5 8 0" stroke="#626A72" stroke-width="3" fill="none"/><path d="M60 82 C53 75 44 72 34 72 H17 Q12 72 12 77 V103 Q12 108 17 108 H36 C46 108 54 111 60 116 C66 111 74 108 84 108 H103 Q108 108 108 103 V77 Q108 72 103 72 H86 C76 72 67 75 60 82 Z" fill="#FFFFFF" stroke="#626A72"/><path d="M60 82 V116" stroke="#626A72" stroke-width="3"/><path d="M92 24 h8 l-8 8 h8" stroke="#626A72" stroke-width="3" fill="none"/><path d="M104 38 h5.5 l-5.5 5.5 h5.5" stroke="#626A72" stroke-width="3" fill="none"/></g></svg>