<svg width="100" height="110" viewBox="0 0 100 110" fill="none" xmlns="http://www.w3.org/2000/svg">
<path d="M50 44.375C50 41.0598 51.317 37.8804 53.6612 35.5362C56.0054 33.192 59.1848 31.875 62.5 31.875H87.5C88.3288 31.875 89.1237 32.2042 89.7097 32.7903C90.2958 33.3763 90.625 34.1712 90.625 35V85C90.625 85.8288 90.2958 86.6237 89.7097 87.2097C89.1237 87.7958 88.3288 88.125 87.5 88.125H62.5C59.1848 88.125 56.0054 89.442 53.6612 91.7862C51.317 94.1304 50 97.3098 50 100.625" fill="#09BC8A"/>
<path d="M50 44.375C50 41.0598 51.317 37.8804 53.6612 35.5362C56.0054 33.192 59.1848 31.875 62.5 31.875H87.5C88.3288 31.875 89.1237 32.2042 89.7097 32.7903C90.2958 33.3763 90.625 34.1712 90.625 35V85C90.625 85.8288 90.2958 86.6237 89.7097 87.2097C89.1237 87.7958 88.3288 88.125 87.5 88.125H62.5C59.1848 88.125 56.0054 89.442 53.6612 91.7862C51.317 94.1304 50 97.3098 50 100.625" stroke="#09BC8A" stroke-width="5" stroke-linecap="round" stroke-linejoin="round"/>
<path d="M9.375 85C9.375 85.8288 9.70424 86.6237 10.2903 87.2097C10.8763 87.7958 11.6712 88.125 12.5 88.125H37.5C40.8152 88.125 43.9946 89.442 46.3388 91.7862C48.683 94.1304 50 97.3098 50 100.625V44.375C50 41.0598 48.683 37.8804 46.3388 35.5362C43.9946 33.192 40.8152 31.875 37.5 31.875H12.5C11.6712 31.875 10.8763 32.2042 10.2903 32.7903C9.70424 33.3763 9.375 34.1712 9.375 35V85Z" fill="#09BC8A" stroke="#09BC8A" stroke-width="5" stroke-linecap="round" stroke-linejoin="round"/>
<path d="M27.9029 20.0904C22.0424 25.9509 18.75 33.8995 18.75 42.1875V50H81.25V42.1875C81.25 33.8995 77.9576 25.9509 72.0971 20.0904C66.2366 14.2299 58.288 10.9375 50 10.9375C41.712 10.9375 33.7634 14.2299 27.9029 20.0904Z" fill="white" stroke="#09BC8A" stroke-width="5" stroke-linecap="round" stroke-linejoin="round"/>
<path d="M21.875 10.9375L29.8047 18.3203" stroke="#09BC8A" stroke-width="5" stroke-linecap="round" stroke-linejoin="round"/>
<path d="M78.125 10.9375L70.1953 18.3203" stroke="#09BC8A" stroke-width="5" stroke-linecap="round" stroke-linejoin="round"/>
<path d="M60.9375 40.625C63.5263 40.625 65.625 38.5263 65.625 35.9375C65.625 33.3487 63.5263 31.25 60.9375 31.25C58.3487 31.25 56.25 33.3487 56.25 35.9375C56.25 38.5263 58.3487 40.625 60.9375 40.625Z" fill="#09BC8A"/>
<path d="M39.0625 40.625C41.6513 40.625 43.75 38.5263 43.75 35.9375C43.75 33.3487 41.6513 31.25 39.0625 31.25C36.4737 31.25 34.375 33.3487 34.375 35.9375C34.375 38.5263 36.4737 40.625 39.0625 40.625Z" fill="#09BC8A"/>
</svg>
