<svg width="22" height="22" viewBox="0 0 22 22" fill="none" xmlns="http://www.w3.org/2000/svg">
<path fill-rule="evenodd" clip-rule="evenodd" d="M21.56 11.25C21.56 10.47 21.49 9.72 21.36 9H11V13.255H16.92C16.665 14.63 15.89 15.795 14.725 16.575V19.335H18.28C20.36 17.42 21.56 14.6 21.56 11.25Z" fill="#4285F4"/>
<path fill-rule="evenodd" clip-rule="evenodd" d="M11 22.0001C13.97 22.0001 16.46 21.0151 18.28 19.3351L14.725 16.5751C13.74 17.2351 12.48 17.6251 11 17.6251C8.13497 17.6251 5.70998 15.6901 4.84498 13.0901H1.16998V15.9401C2.97998 19.5351 6.69998 22.0001 11 22.0001Z" fill="#34A853"/>
<path fill-rule="evenodd" clip-rule="evenodd" d="M4.84499 13.09C4.62499 12.4301 4.49999 11.7251 4.49999 11.0001C4.49999 10.2751 4.62499 9.57005 4.84499 8.91005V6.06006H1.17C0.424999 7.54506 0 9.22505 0 11.0001C0 12.775 0.424999 14.455 1.17 15.94L4.84499 13.09Z" fill="#FBBC05"/>
<path fill-rule="evenodd" clip-rule="evenodd" d="M11 4.37499C12.615 4.37499 14.065 4.92999 15.205 6.01999L18.36 2.865C16.455 1.09 13.965 0 11 0C6.69998 0 2.97998 2.465 1.16998 6.05999L4.84498 8.90999C5.70998 6.30999 8.13497 4.37499 11 4.37499Z" fill="#EA4335"/>
</svg>
