<svg width="88" height="75" viewBox="6 29 88 75" fill="none" xmlns="http://www.w3.org/2000/svg">
<path d="M50 44.375C50 41.0598 51.317 37.8804 53.6612 35.5362C56.0054 33.192 59.1848 31.875 62.5 31.875H87.5C88.3288 31.875 89.1237 32.2042 89.7097 32.7903C90.2958 33.3763 90.625 34.1712 90.625 35V85C90.625 85.8288 90.2958 86.6237 89.7097 87.2097C89.1237 87.7958 88.3288 88.125 87.5 88.125H62.5C59.1848 88.125 56.0054 89.442 53.6612 91.7862C51.317 94.1304 50 97.3098 50 100.625" stroke="black" stroke-width="6" stroke-linecap="round" stroke-linejoin="round"/>
<path d="M9.375 85C9.375 85.8288 9.70424 86.6237 10.2903 87.2097C10.8763 87.7958 11.6712 88.125 12.5 88.125H37.5C40.8152 88.125 43.9946 89.442 46.3388 91.7862C48.683 94.1304 50 97.3098 50 100.625V44.375C50 41.0598 48.683 37.8804 46.3388 35.5362C43.9946 33.192 40.8152 31.875 37.5 31.875H12.5C11.6712 31.875 10.8763 32.2042 10.2903 32.7903C9.70424 33.3763 9.375 34.1712 9.375 35V85Z" stroke="black" stroke-width="6" stroke-linecap="round" stroke-linejoin="round"/>
</svg>
