<svg width="120" height="132" viewBox="0 0 120 132" fill="none" xmlns="http://www.w3.org/2000/svg">
<path d="M60 53.25C60 49.2718 61.5804 45.4564 64.3934 42.6434C67.2064 39.8304 71.0218 38.25 75 38.25H105C105.995 38.25 106.948 38.6451 107.652 39.3484C108.355 40.0516 108.75 41.0054 108.75 42V102C108.75 102.995 108.355 103.948 107.652 104.652C106.948 105.355 105.995 105.75 105 105.75H75C71.0218 105.75 67.2064 107.33 64.3934 110.143C61.5804 112.956 60 116.772 60 120.75" fill="#ADB5BD"/>
<path d="M60 53.25C60 49.2718 61.5804 45.4564 64.3934 42.6434C67.2064 39.8304 71.0218 38.25 75 38.25H105C105.995 38.25 106.948 38.6451 107.652 39.3484C108.355 40.0516 108.75 41.0054 108.75 42V102C108.75 102.995 108.355 103.948 107.652 104.652C106.948 105.355 105.995 105.75 105 105.75H75C71.0218 105.75 67.2064 107.33 64.3934 110.143C61.5804 112.956 60 116.772 60 120.75" stroke="#ADB5BD" stroke-width="5" stroke-linecap="round" stroke-linejoin="round"/>
<path d="M11.25 102C11.25 102.995 11.6451 103.948 12.3483 104.652C13.0516 105.355 14.0054 105.75 15 105.75H45C48.9782 105.75 52.7936 107.33 55.6066 110.143C58.4196 112.956 60 116.772 60 120.75V53.25C60 49.2718 58.4196 45.4564 55.6066 42.6434C52.7936 39.8304 48.9782 38.25 45 38.25H15C14.0054 38.25 13.0516 38.6451 12.3483 39.3484C11.6451 40.0516 11.25 41.0054 11.25 42V102Z" fill="#ADB5BD" stroke="#ADB5BD" stroke-width="5" stroke-linecap="round" stroke-linejoin="round"/>
<path d="M33.4835 24.1085C26.4509 31.1411 22.5 40.6794 22.5 50.625V60H97.5V50.625C97.5 40.6794 93.5491 31.1411 86.5165 24.1085C79.4839 17.0759 69.9456 13.125 60 13.125C50.0544 13.125 40.5161 17.0759 33.4835 24.1085Z" fill="white" stroke="#ADB5BD" stroke-width="5" stroke-linecap="round" stroke-linejoin="round"/>
<path d="M26.25 13.125L35.7656 21.9844" stroke="#ADB5BD" stroke-width="5" stroke-linecap="round" stroke-linejoin="round"/>
<path d="M93.75 13.125L84.2344 21.9844" stroke="#ADB5BD" stroke-width="5" stroke-linecap="round" stroke-linejoin="round"/>
<path d="M73.2 43.8C74.8568 43.8 76.2 42.4569 76.2 40.8C76.2 39.1432 74.8568 37.8 73.2 37.8C71.5431 37.8 70.2 39.1432 70.2 40.8C70.2 42.4569 71.5431 43.8 73.2 43.8Z" fill="#ADB5BD"/>
<path d="M46.8 43.8C48.4569 43.8 49.8 42.4569 49.8 40.8C49.8 39.1432 48.4569 37.8 46.8 37.8C45.1432 37.8 43.8 39.1432 43.8 40.8C43.8 42.4569 45.1432 43.8 46.8 43.8Z" fill="#ADB5BD"/>
<path d="M60.3001 50.1C63.6816 50.1 64.3411 50.8998 66.2648 52.4585C66.8945 52.9687 67.7217 52.4936 67.3779 51.7597C66.352 49.5699 63.5705 48 60.3001 48C57.0128 48 54.4085 49.5861 53.4735 51.7936C53.161 52.5315 53.9851 53.0022 54.5976 52.4856C56.285 51.0622 56.9827 50.1 60.3001 50.1Z" fill="#ADB5BD"/>
</svg>
